<svg id="Layer_2" data-name="Layer 2" xmlns="http://www.w3.org/2000/svg" viewBox="0 0 1169.01 1616.11">
    <defs>
        <style>
            .cls-1,.cls-5{opacity:0.2;}.cls-2,.cls-5{fill:#000309;}.cls-3{fill:#8ca71f;}.cls-4{fill:#658415;}.cls-6{fill:#ffc609;}.cls-7{fill:#bbd073;}.cls-8{fill:#fcffe8;}.cls-9{fill:#060039;}
        </style>
    </defs>
    <title>BagolyPELDA_V2_KIJAVITVA</title>
    <g id="Farok_ARNYEK" class="cls-1">
        <polygon id="BalFarok" class="cls-2"
                 points="573.87 1129.41 560.8 1158.84 540.96 1199.94 524.5 1232.17 506.1 1270 491.1 1300.31 477.54 1326.99 464.47 1353.61 453.34 1373.23 461.57 1390.04 471.73 1411.53 482.38 1434.42 491.58 1453.57 500.78 1473.18 510.94 1492.8 521.59 1513.35 530.79 1532.04 541.44 1552.59 552.09 1573.14 563.22 1596.03 573.87 1616.11 573.87 1129.41"/>
        <polygon id="JobbFarok" class="cls-2"
                 points="696.34 1372.76 683.27 1399.38 666.33 1432.55 646 1473.18 626.63 1512.42 605.34 1552.59 587.91 1589.49 573.87 1616.11 573.87 1129.41 584.04 1150.89 597.59 1177.99 610.66 1205.08 623.73 1229.37 640.67 1262.53 655.2 1291.49 668.27 1317.64 681.34 1343.8 696.34 1372.76"/>
    </g>
    <polygon id="JobbFarok-2" data-name="JobbFarok" class="cls-3"
             points="700.12 1345.31 687.05 1372.9 670.11 1407.27 649.78 1449.38 630.42 1490.05 609.12 1531.68 591.69 1569.92 577.65 1597.51 577.65 1093.11 587.82 1115.38 601.37 1143.45 614.44 1171.53 627.51 1196.7 644.46 1231.07 658.98 1261.08 672.05 1288.19 685.12 1315.3 700.12 1345.31"/>
    <polygon id="BalFarok-2" data-name="BalFarok" class="cls-4"
             points="577.65 1093.11 564.58 1123.61 544.74 1166.2 528.28 1199.61 509.88 1238.81 494.88 1270.22 481.32 1297.87 468.25 1325.46 457.12 1345.79 465.35 1363.22 475.51 1385.49 486.16 1409.21 495.36 1429.05 504.56 1449.38 514.72 1469.72 525.37 1491.02 534.57 1510.38 545.22 1531.68 555.87 1552.98 567 1576.7 577.65 1597.51 577.65 1093.11"/>
    <polygon id="BalLab_ARNYEK" class="cls-5"
             points="328.38 1176.3 316.86 1200.55 303.52 1231.48 290.18 1263.01 276.23 1301.22 264.71 1330.33 279.87 1357.61 293.82 1380.66 314.44 1409.77 332.63 1433.41 349 1453.43 365.38 1476.47 370.23 1466.77 381.14 1446.15 393.88 1420.07 404.79 1395.21 420.56 1364.28 411.47 1343.67 393.88 1306.07 376.29 1269.68 356.28 1228.45 328.38 1176.3"/>
    <polygon id="BalLab" class="cls-4"
             points="328.38 1160.07 316.86 1184.33 303.52 1215.26 290.18 1246.79 276.23 1284.99 264.71 1314.1 279.87 1341.39 293.82 1364.43 314.44 1393.54 332.63 1417.19 349 1437.2 365.38 1460.25 370.23 1450.54 381.14 1429.93 393.88 1403.85 404.79 1378.99 420.56 1348.06 411.47 1327.44 393.88 1289.85 376.29 1253.46 356.28 1212.22 328.38 1160.07"/>
    <polygon id="BalSzarny_ARNYEK" class="cls-5"
             points="162.35 571.96 132.12 593.95 87.42 628.87 48.64 662.5 15.12 696.77 0 711.65 0 738.81 3.29 778.25 8.54 818.35 17.75 866.2 26.95 903.06 36.81 941.22 54.56 991.66 81.18 1058.91 97.28 1091.25 122.26 1134.58 143.95 1171.44 166.3 1204.42 193.25 1239.99 217.57 1267.79 238.6 1291.72 247.8 1276.2 270.15 1233.52 293.16 1186.96 315.5 1133.93 335.88 1081.55 351 1041.45 370.06 988.43 387.15 939.28 402.27 897.89 411.47 875.26 400.95 859.74 374.66 826.76 343.77 788.6 316.16 753.68 271.46 700.01 224.14 643.75 184.04 596.54 162.35 571.96"/>
    <polygon id="BalSzarny" class="cls-4"
             points="166.38 550.47 136.63 572.45 92.66 607.37 54.5 641 21.52 675.28 6.65 690.15 6.65 717.31 9.88 756.76 15.05 796.85 24.11 844.71 33.16 881.57 42.86 919.72 60.32 970.16 86.51 1037.42 102.36 1069.75 126.93 1113.08 148.27 1149.94 170.26 1182.92 196.77 1218.49 220.7 1246.3 241.39 1270.22 250.45 1254.7 272.43 1212.02 295.07 1165.46 317.06 1112.43 337.1 1060.05 351.98 1019.96 370.73 966.93 387.54 917.78 402.42 876.39 411.47 853.76 401.12 838.24 375.26 805.26 344.86 767.11 317.7 732.18 273.73 678.51 227.17 622.25 187.72 575.04 166.38 550.47"/>
    <polygon id="JobbLab_ARNYEK" class="cls-5"
             points="827.96 1176.3 818.25 1197.39 806.13 1223.59 792.06 1255.12 780.41 1279.86 764.89 1312.36 751.31 1340.5 738.21 1364.27 746.46 1386.1 756.64 1409.39 767.32 1431.7 777.02 1452.08 788.18 1476.47 799.33 1465.17 820.68 1434.13 847.36 1400.65 868.7 1372.03 887.62 1346.32 894.9 1333.71 885.2 1307.03 872.1 1271.62 857.55 1233.78 840.08 1197.39 827.96 1176.3"/>
    <polygon id="JobbLab" class="cls-3"
             points="827.96 1160.07 818.25 1181.17 806.13 1207.37 792.06 1238.9 780.41 1263.64 764.89 1296.14 751.31 1324.28 738.21 1348.05 746.46 1369.88 756.64 1393.16 767.32 1415.48 777.02 1435.85 788.18 1460.25 799.33 1448.95 820.68 1417.9 847.36 1384.43 868.7 1355.81 887.62 1330.1 894.9 1317.48 885.2 1290.8 872.1 1255.39 857.55 1217.55 840.08 1181.17 827.96 1160.07"/>
    <polygon id="JobbSzarny_ARNYEK" class="cls-5"
             points="1002.15 571.96 975.17 601.44 946.32 636.22 911.81 676.48 883.59 710.03 842.18 758.83 812.07 794.86 780.71 832.04 744.95 871.69 755.61 899.75 769.41 938.18 781.96 972.96 802.03 1030.91 818.58 1070.56 837.16 1125.47 854.73 1163.29 870.41 1198.06 890.49 1239.54 915.58 1291.72 926.24 1283.46 954.47 1254.18 992.11 1205.38 1025.98 1156.58 1047.94 1118.14 1074.29 1069.95 1095.62 1022.98 1110.67 984.55 1129.49 922.32 1141.41 872.91 1155.84 807.64 1162.74 765.54 1169.01 711.86 1148.31 689.9 1102.52 647.2 1042.92 598.39 1002.15 571.96"/>
    <polygon id="JobbSzarny" class="cls-3"
             points="995.06 550.47 968.83 579.95 940.77 614.72 907.22 654.98 879.77 688.53 839.5 737.34 810.22 773.36 779.72 810.54 744.95 850.19 755.32 878.25 768.74 916.69 780.94 951.46 800.46 1009.41 816.55 1049.07 834.63 1103.97 851.71 1141.79 866.96 1176.56 886.48 1218.05 910.88 1270.22 921.25 1261.97 948.7 1232.69 985.3 1183.88 1018.25 1135.08 1039.6 1096.65 1065.22 1048.46 1085.96 1001.48 1100.6 963.05 1118.9 900.83 1130.49 851.41 1144.52 786.14 1151.23 744.05 1157.33 690.36 1137.2 668.4 1092.67 625.7 1034.72 576.9 995.06 550.47"/>
    <path id="JobbTest" class="cls-3"
          d="M1728.53,118.76,1401.12,433.71l1.59,724.41,138.5,275.81,98.63-199.07-96.38-274.45,273.33-315S1855,588.3,1853.9,516.78,1778.17,315.33,1718.18,256,1728.53,118.76,1728.53,118.76Z"
          transform="translate(-823.27 -118.76)"/>
    <path id="BalTest" class="cls-4"
          d="M1071.78,118.76l329.34,314.95,1.59,724.41-140.27,275.81-101.6-199.48,99.09-270.92L989,647.45s-47.66-69-30.1-161.8,122.92-217,122.92-217S1148.29,198.39,1071.78,118.76Z"
          transform="translate(-823.27 -118.76)"/>
    <path id="Csor_ARNYEK" class="cls-5"
          d="M1397.66,575.93s-51.22,88.82-51.78,91.61,52.16,96.64,51.78,95,55.67-93.28,55.67-93.28Z"
          transform="translate(-823.27 -118.76)"/>
    <path id="Csor" class="cls-6"
          d="M1400.93,552.11s-51.22,88.82-51.78,91.61,52.16,96.64,51.78,95,55.67-93.28,55.67-93.28Z"
          transform="translate(-823.27 -118.76)"/>
    <path id="Sapka_ARNYEK" class="cls-5" d="M1071.8,119.45,1399.9,459.56l329.76-337.08s-287.35,204.11-657.85-3"
          transform="translate(-823.27 -118.76)"/>
    <path id="Sapka" class="cls-7" d="M1070.67,120.19l330.44,313.52,327.41-314.95S1442.6,310,1070.67,120.19"
          transform="translate(-823.27 -118.76)"/>
    <path id="JobbSzemAlatti" class="cls-8"
          d="M1678.82,252.65c-2.51.84-56.89,47.69-56.89,47.69s75.3,53.55,47.69,140.56c0,0-57.88-116.3-163.15-44.34,0,0-57.73,37.65-36,121.32,0,0,17.57,56.06,78.65,70.28,0,0,55.22,9.2,112.11-30.12s69.31-112.11,67.28-111.28,20.56-72-16.25-139.72S1678.82,252.65,1678.82,252.65Z"
          transform="translate(-823.27 -118.76)"/>
    <path id="BalSzemAllatti" class="cls-8"
          d="M1128.29,256l55.22,45.18s-70.28,60.35-50.2,146.89c0,0,24.26-73.26,106.26-72.43,0,0,85.34-2.51,101.24,98.73,0,0,5.41,103.94-106.06,114.72,0,0-119-2.61-153.31-111.37S1106.54,286.12,1128.29,256Z"
          transform="translate(-823.27 -118.76)"/>
    <circle id="BalPupilla" class="cls-9" cx="421.38" cy="329.31" r="68.71"/>
    <circle id="JobbPupilla" class="cls-9" cx="738.14" cy="329.31" r="68.71"/>
</svg>